<?xml version="1.0" encoding="UTF-8" standalone="no"?>
<svg
   xmlns:dc="http://purl.org/dc/elements/1.1/"
   xmlns:cc="http://creativecommons.org/ns#"
   xmlns:rdf="http://www.w3.org/1999/02/22-rdf-syntax-ns#"
   xmlns:svg="http://www.w3.org/2000/svg"
   xmlns="http://www.w3.org/2000/svg"
   xmlns:sodipodi="http://sodipodi.sourceforge.net/DTD/sodipodi-0.dtd"
   xmlns:inkscape="http://www.inkscape.org/namespaces/inkscape"
   enable-background="new 0 0 32 32"
   height="23px"
   id="Vkontakte"
   version="1.1"
   viewBox="0 0 32 32"
   width="23px"
   xml:space="preserve"
   inkscape:version="0.91 r13725"
   sodipodi:docname="vk_blue.svg"><metadata
     id="metadata9"><rdf:RDF><cc:Work
         rdf:about=""><dc:format>image/svg+xml</dc:format><dc:type
           rdf:resource="http://purl.org/dc/dcmitype/StillImage" /><dc:title></dc:title></cc:Work></rdf:RDF></metadata><defs
     id="defs7" /><sodipodi:namedview
     pagecolor="#ffffff"
     bordercolor="#666666"
     borderopacity="1"
     objecttolerance="10"
     gridtolerance="10"
     guidetolerance="10"
     inkscape:pageopacity="0"
     inkscape:pageshadow="2"
     inkscape:window-width="1010"
     inkscape:window-height="709"
     id="namedview5"
     showgrid="false"
     inkscape:zoom="10.26087"
     inkscape:cx="-3.3622881"
     inkscape:cy="15.398305"
     inkscape:window-x="0"
     inkscape:window-y="0"
     inkscape:window-maximized="0"
     inkscape:current-layer="Vkontakte" /><path
     d="m 16.677966,24 c 1,0 1,-1.441 1,-2 0,-1 1,-2 2,-2 1,0 2.715,1.715 4,3 1,1 1,1 2,1 1,0 3,0 3,0 0,0 2,-0.076 2,-2 0,-0.625 -0.685,-1.685 -3,-4 -2,-2 -3.026,-0.967 0,-5 1.843,-2.456 3.184,-4.681 2.954,-5.323 -0.22,-0.613 -5.346,-1.589 -5.954,-0.677 -2,3 -2.367,3.735 -3,5 -1,2 -1.099,3 -2,3 -0.909,0 -1,-1.941 -1,-3 0,-3.306 0.479,-5.644 -1,-6 0,0 -2,0 -3,0 -1.61,0 -3,1 -3,1 0,0 -1.241,0.968 -1,1 0.298,0.04 2,-0.414 2,1 0,1 0,2 0,2 0,0 0.009,4 -1,4 -1,0 -2.9999999,-4 -4.9999999,-7 -0.785,-1.177 -1,-1 -2,-1 -1.072,0 -1.999,0.042 -3,0.042 -1,0 -1.128,0.637 -1,0.958 2,5 3.437,8.14 7.237,12.096 3.4849999,3.629 5.8129999,3.822 7.7629999,3.904 0.5,0.021 0,0 1,0 z"
     id="path3"
     style="opacity:1;fill:#597da3;fill-opacity:1"
     inkscape:connector-curvature="0" /></svg>